<?xml version="1.0" encoding="utf-8"?>
<!-- Generator: Adobe Illustrator 27.0.0, SVG Export Plug-In . SVG Version: 6.00 Build 0)  -->
<svg version="1.1" id="Layer_1" xmlns="http://www.w3.org/2000/svg" x="0px" y="0px"
	 viewBox="0 0 314.6 60.3" style="enable-background:new 0 0 314.6 60.3;" xml:space="preserve">
<style type="text/css">
	.st0{fill:#0C8B44;}
	.st1{opacity:0.15;}
	.st2{fill:#FFFFFF;}
</style>
<g>
	<g>
		<polygon class="st0" points="94.7,37.8 103.7,14 110.9,14 98.7,46.4 90.8,46.4 78.5,14 85.7,14 		"/>
		<path class="st0" d="M162.4,14c5.5,0,9.9,4.4,9.9,9.9h-7.2c0-1.5-1.2-2.7-2.7-2.7c-5,0-9,4-9,9v16.2h-7.2V14h7.2v2.7
			C156,15,159.1,14,162.4,14z"/>
		<path class="st0" d="M200.7,14h7.2v16.2c0,5.2-2.4,9.8-6.2,12.8h6.2c0,8.9-7.3,16.2-16.2,16.2v-7.2c4.7,0,8.6-3.6,9-8.3
			c-2.6,1.7-5.6,2.7-9,2.7c-8.9,0-16.2-7.3-16.2-16.2V14h7.2v16.2c0,5,4,9,9,9c5,0,9-4,9-9V14z"/>
		<path class="st0" d="M227.2,13.9c-3.3,0-6.4,1-9,2.7v-2.7h-7.2v46.4h7.2V43.6c2.6,1.7,5.7,2.7,9,2.7c9,0,16.2-7.3,16.2-16.2
			C243.5,21.2,236.2,13.9,227.2,13.9z M227.2,39.1c-4.9,0-9-4-9-9c0-5,4-9,9-9c5,0,9,4,9,9C236.3,35.1,232.2,39.1,227.2,39.1z"/>
		<path class="st0" d="M279,30.2v16.2h-7.2V30.2c0-5-4-9-9-9s-9,4-9,9v16.2h-7.2V0h7.2v16.7c2.6-1.7,5.7-2.7,9-2.7
			C271.8,14,279,21.2,279,30.2z"/>
		<path class="st0" d="M307.4,14h7.2v16.2c0,5.2-2.4,9.8-6.2,12.8h6.2c0,8.9-7.3,16.2-16.2,16.2v-7.2c4.7,0,8.6-3.6,9-8.3
			c-2.6,1.7-5.6,2.7-9,2.7c-8.9,0-16.2-7.3-16.2-16.2V14h7.2v16.2c0,5,4,9,9,9s9-4,9-9V14z"/>
		<path class="st0" d="M140.6,20.9c-1.7-2.5-3.8-4.3-6.2-5.4c-2.4-1.1-4.8-1.7-7-1.7c-3.3,0-6.4,1-9.2,2.9c-2.8,1.9-4.8,4.4-6,7.5
			c-0.7,1.9-1.1,3.8-1.1,5.7c0,3.3,0.9,6.3,2.8,9.1c1.7,2.5,3.8,4.4,6.2,5.5c2.4,1.1,4.8,1.6,7.1,1.6c2.8,0,5.4-0.6,7.8-2
			c2.4-1.3,4.4-3.1,5.9-5.4l-6.5-2.5c-0.9,1-1.9,1.8-3.2,2.3c-1.3,0.5-2.6,0.8-4,0.8c-1.2,0-2.3-0.2-3.3-0.6
			c-1.3-0.5-2.4-1.2-3.3-2.2c-1-1-1.7-2.2-2.2-3.5l24.8-0.7v-0.1l0.1,0.1c0.1-0.8,0.2-1.7,0.2-2.5C143.4,26.8,142.5,23.8,140.6,20.9
			z M118.3,27.1l0.1-0.4c0.7-1.9,1.9-3.3,3.5-4.4c1.6-1.1,3.4-1.6,5.4-1.6c1.2,0,2.3,0.2,3.3,0.6c1.3,0.5,2.4,1.2,3.3,2.2
			c0.9,0.9,1.6,2,2.1,3.2L118.3,27.1z"/>
	</g>
	<g>
		<g>
			<path class="st0" d="M36.1,13.8v11.1h-5.6V13.8H0v33.3h30.5v-9.8h5.6v9.8h30.5V13.8H36.1z M24.3,40.9H6.2V20h18.1v4.9h-5.4v12.4
				h5.4V40.9z M60.3,40.9H42.2v-3.6h5.4V24.9h-5.4V20h18.1V40.9z"/>
		</g>
	</g>
</g>
</svg>
